STARTFONT 2.1
FONT -FontForge-Symbol-Regular-R-Normal--17-170-72-72-P-85-MacRoman-0
SIZE 17 72 72
FONTBOUNDINGBOX 254 17 0 -4
COMMENT "Generated by fontforge, http://fontforge.sourceforge.net"
STARTPROPERTIES 30
FOUNDRY "FontForge"
FAMILY_NAME "Symbol"
WEIGHT_NAME "Regular"
SLANT "R"
SETWIDTH_NAME "Normal"
ADD_STYLE_NAME ""
PIXEL_SIZE 17
POINT_SIZE 170
RESOLUTION_X 72
RESOLUTION_Y 72
SPACING "P"
AVERAGE_WIDTH 85
CHARSET_REGISTRY "MacRoman"
CHARSET_ENCODING "0"
FONTNAME_REGISTRY ""
CHARSET_COLLECTIONS "MacRoman"
FONT_NAME "Symbol"
FACE_NAME "Symbol"
FONT_VERSION "001.000"
FONT_ASCENT 13
FONT_DESCENT 4
UNDERLINE_POSITION -2
UNDERLINE_THICKNESS 1
X_HEIGHT 9
CAP_HEIGHT 6
RAW_ASCENT 800
RAW_DESCENT 200
NORM_SPACE 3
AVG_LOWERCASE_WIDTH 1041
AVG_UPPERCASE_WIDTH 384
ENDPROPERTIES
CHARS 190
STARTCHAR space
ENCODING 32
SWIDTH 250 0
DWIDTH 3 0
BBX 1 1 0 -4
BITMAP
00
ENDCHAR
STARTCHAR exclam
ENCODING 33
SWIDTH 333 0
DWIDTH 4 0
BBX 1 8 2 0
BITMAP
80
80
80
80
80
80
00
80
ENDCHAR
STARTCHAR quotedbl
ENCODING 34
SWIDTH 713 0
DWIDTH 9 0
BBX 7 8 1 0
BITMAP
82
82
7C
44
28
28
10
10
ENDCHAR
STARTCHAR numbersign
ENCODING 35
SWIDTH 500 0
DWIDTH 6 0
BBX 5 8 0 0
BITMAP
50
50
F8
50
50
F8
50
50
ENDCHAR
STARTCHAR dollar
ENCODING 36
SWIDTH 549 0
DWIDTH 7 0
BBX 6 8 0 0
BITMAP
FC
04
04
7C
04
04
04
FC
ENDCHAR
STARTCHAR percent
ENCODING 37
SWIDTH 833 0
DWIDTH 10 0
BBX 8 8 1 0
BITMAP
62
94
94
68
16
29
29
46
ENDCHAR
STARTCHAR ampersand
ENCODING 38
SWIDTH 778 0
DWIDTH 9 0
BBX 8 8 0 0
BITMAP
30
48
50
26
54
88
94
63
ENDCHAR
STARTCHAR quotesingle
ENCODING 39
SWIDTH 439 0
DWIDTH 5 0
BBX 4 7 0 0
BITMAP
E0
10
10
F0
10
10
E0
ENDCHAR
STARTCHAR parenleft
ENCODING 40
SWIDTH 333 0
DWIDTH 4 0
BBX 3 11 0 -3
BITMAP
20
40
40
80
80
80
80
80
40
40
20
ENDCHAR
STARTCHAR parenright
ENCODING 41
SWIDTH 333 0
DWIDTH 4 0
BBX 3 11 0 -3
BITMAP
80
40
40
20
20
20
20
20
40
40
80
ENDCHAR
STARTCHAR asterisk
ENCODING 42
SWIDTH 500 0
DWIDTH 6 0
BBX 5 5 0 2
BITMAP
20
F8
70
F8
20
ENDCHAR
STARTCHAR plus
ENCODING 43
SWIDTH 549 0
DWIDTH 7 0
BBX 7 7 0 1
BITMAP
10
10
10
FE
10
10
10
ENDCHAR
STARTCHAR comma
ENCODING 44
SWIDTH 250 0
DWIDTH 4 0
BBX 2 3 1 -2
BITMAP
40
40
80
ENDCHAR
STARTCHAR hyphen
ENCODING 45
SWIDTH 549 0
DWIDTH 7 0
BBX 6 1 0 4
BITMAP
FC
ENDCHAR
STARTCHAR period
ENCODING 46
SWIDTH 250 0
DWIDTH 4 0
BBX 1 1 1 0
BITMAP
80
ENDCHAR
STARTCHAR slash
ENCODING 47
SWIDTH 278 0
DWIDTH 3 0
BBX 2 8 0 0
BITMAP
40
40
40
40
80
80
80
80
ENDCHAR
STARTCHAR zero
ENCODING 48
SWIDTH 500 0
DWIDTH 6 0
BBX 5 8 0 0
BITMAP
70
88
88
88
88
88
88
70
ENDCHAR
STARTCHAR one
ENCODING 49
SWIDTH 500 0
DWIDTH 6 0
BBX 3 8 1 0
BITMAP
40
C0
40
40
40
40
40
E0
ENDCHAR
STARTCHAR two
ENCODING 50
SWIDTH 500 0
DWIDTH 6 0
BBX 5 8 0 0
BITMAP
70
88
08
10
20
40
88
F0
ENDCHAR
STARTCHAR three
ENCODING 51
SWIDTH 500 0
DWIDTH 6 0
BBX 5 8 0 0
BITMAP
70
88
08
30
08
08
88
70
ENDCHAR
STARTCHAR four
ENCODING 52
SWIDTH 500 0
DWIDTH 6 0
BBX 5 8 0 0
BITMAP
08
18
28
48
88
F8
08
08
ENDCHAR
STARTCHAR five
ENCODING 53
SWIDTH 500 0
DWIDTH 6 0
BBX 5 8 0 0
BITMAP
F8
80
80
F0
08
08
88
70
ENDCHAR
STARTCHAR six
ENCODING 54
SWIDTH 500 0
DWIDTH 6 0
BBX 5 8 0 0
BITMAP
30
40
80
F0
88
88
88
70
ENDCHAR
STARTCHAR seven
ENCODING 55
SWIDTH 500 0
DWIDTH 6 0
BBX 5 8 0 0
BITMAP
F8
88
10
10
20
20
40
40
ENDCHAR
STARTCHAR eight
ENCODING 56
SWIDTH 500 0
DWIDTH 6 0
BBX 5 8 0 0
BITMAP
70
88
88
70
88
88
88
70
ENDCHAR
STARTCHAR nine
ENCODING 57
SWIDTH 500 0
DWIDTH 6 0
BBX 5 8 0 0
BITMAP
70
88
88
88
78
08
10
60
ENDCHAR
STARTCHAR colon
ENCODING 58
SWIDTH 278 0
DWIDTH 3 0
BBX 1 5 1 0
BITMAP
80
00
00
00
80
ENDCHAR
STARTCHAR semicolon
ENCODING 59
SWIDTH 278 0
DWIDTH 3 0
BBX 2 6 0 -1
BITMAP
40
00
00
00
40
80
ENDCHAR
STARTCHAR less
ENCODING 60
SWIDTH 549 0
DWIDTH 7 0
BBX 6 5 0 1
BITMAP
0C
30
C0
30
0C
ENDCHAR
STARTCHAR equal
ENCODING 61
SWIDTH 549 0
DWIDTH 7 0
BBX 6 3 0 2
BITMAP
FC
00
FC
ENDCHAR
STARTCHAR greater
ENCODING 62
SWIDTH 549 0
DWIDTH 7 0
BBX 6 5 0 1
BITMAP
C0
30
0C
30
C0
ENDCHAR
STARTCHAR question
ENCODING 63
SWIDTH 444 0
DWIDTH 6 0
BBX 4 8 1 0
BITMAP
60
90
10
20
40
40
00
40
ENDCHAR
STARTCHAR at
ENCODING 64
SWIDTH 549 0
DWIDTH 7 0
BBX 6 8 0 0
BITMAP
64
98
00
00
FC
00
00
FC
ENDCHAR
STARTCHAR A
ENCODING 65
SWIDTH 722 0
DWIDTH 9 0
BBX 9 8 0 0
BITMAP
0800
0800
1400
1400
2200
3E00
4100
E380
ENDCHAR
STARTCHAR B
ENCODING 66
SWIDTH 667 0
DWIDTH 8 0
BBX 6 8 1 0
BITMAP
F8
44
44
78
44
44
44
F8
ENDCHAR
STARTCHAR C
ENCODING 67
SWIDTH 722 0
DWIDTH 9 0
BBX 8 8 0 0
BITMAP
E7
42
24
18
18
24
42
EF
ENDCHAR
STARTCHAR D
ENCODING 68
SWIDTH 612 0
DWIDTH 8 0
BBX 7 8 0 0
BITMAP
10
10
28
28
44
44
82
FE
ENDCHAR
STARTCHAR E
ENCODING 69
SWIDTH 611 0
DWIDTH 8 0
BBX 7 8 0 0
BITMAP
FE
42
48
78
48
42
42
FE
ENDCHAR
STARTCHAR F
ENCODING 70
SWIDTH 763 0
DWIDTH 9 0
BBX 7 8 1 0
BITMAP
38
10
7C
92
92
7C
10
38
ENDCHAR
STARTCHAR G
ENCODING 71
SWIDTH 603 0
DWIDTH 7 0
BBX 6 8 0 0
BITMAP
FC
44
40
40
40
40
40
E0
ENDCHAR
STARTCHAR H
ENCODING 72
SWIDTH 722 0
DWIDTH 9 0
BBX 7 8 1 0
BITMAP
EE
44
44
7C
44
44
44
EE
ENDCHAR
STARTCHAR I
ENCODING 73
SWIDTH 333 0
DWIDTH 4 0
BBX 3 8 0 0
BITMAP
E0
40
40
40
40
40
40
E0
ENDCHAR
STARTCHAR J
ENCODING 74
SWIDTH 631 0
DWIDTH 8 0
BBX 7 9 0 0
BITMAP
18
24
24
94
4E
44
44
48
30
ENDCHAR
STARTCHAR K
ENCODING 75
SWIDTH 722 0
DWIDTH 9 0
BBX 8 8 0 0
BITMAP
EE
48
50
60
50
48
44
EF
ENDCHAR
STARTCHAR L
ENCODING 76
SWIDTH 686 0
DWIDTH 8 0
BBX 7 8 0 0
BITMAP
10
10
10
28
28
44
44
EE
ENDCHAR
STARTCHAR M
ENCODING 77
SWIDTH 889 0
DWIDTH 11 0
BBX 9 8 1 0
BITMAP
E380
6300
5500
5500
4900
4900
4100
E380
ENDCHAR
STARTCHAR N
ENCODING 78
SWIDTH 722 0
DWIDTH 9 0
BBX 8 8 0 0
BITMAP
C7
42
62
52
4A
46
42
E2
ENDCHAR
STARTCHAR O
ENCODING 79
SWIDTH 722 0
DWIDTH 9 0
BBX 7 8 1 0
BITMAP
38
44
82
82
82
82
44
38
ENDCHAR
STARTCHAR P
ENCODING 80
SWIDTH 768 0
DWIDTH 9 0
BBX 8 8 0 0
BITMAP
FF
42
42
42
42
42
42
E7
ENDCHAR
STARTCHAR Q
ENCODING 81
SWIDTH 741 0
DWIDTH 9 0
BBX 7 8 1 0
BITMAP
38
44
82
BA
BA
82
44
38
ENDCHAR
STARTCHAR R
ENCODING 82
SWIDTH 556 0
DWIDTH 7 0
BBX 6 8 0 0
BITMAP
F8
44
44
44
78
40
40
E0
ENDCHAR
STARTCHAR S
ENCODING 83
SWIDTH 592 0
DWIDTH 8 0
BBX 6 8 1 0
BITMAP
FC
44
20
10
10
20
44
FC
ENDCHAR
STARTCHAR T
ENCODING 84
SWIDTH 611 0
DWIDTH 8 0
BBX 7 8 0 0
BITMAP
FE
92
10
10
10
10
10
38
ENDCHAR
STARTCHAR U
ENCODING 85
SWIDTH 690 0
DWIDTH 8 0
BBX 7 8 0 0
BITMAP
EE
44
28
28
10
10
10
38
ENDCHAR
STARTCHAR V
ENCODING 86
SWIDTH 439 0
DWIDTH 5 0
BBX 4 8 0 -2
BITMAP
70
80
80
80
80
60
10
60
ENDCHAR
STARTCHAR W
ENCODING 87
SWIDTH 768 0
DWIDTH 9 0
BBX 8 8 0 0
BITMAP
3C
42
81
81
81
42
24
E7
ENDCHAR
STARTCHAR X
ENCODING 88
SWIDTH 645 0
DWIDTH 8 0
BBX 7 7 0 0
BITMAP
FE
82
00
7C
00
82
FE
ENDCHAR
STARTCHAR Y
ENCODING 89
SWIDTH 795 0
DWIDTH 10 0
BBX 9 8 0 0
BITMAP
9C80
4900
4900
4900
3E00
0800
0800
1C00
ENDCHAR
STARTCHAR Z
ENCODING 90
SWIDTH 611 0
DWIDTH 8 0
BBX 7 8 0 0
BITMAP
FE
84
08
10
20
40
82
FE
ENDCHAR
STARTCHAR bracketleft
ENCODING 91
SWIDTH 333 0
DWIDTH 4 0
BBX 2 11 1 -3
BITMAP
C0
80
80
80
80
80
80
80
80
80
C0
ENDCHAR
STARTCHAR backslash
ENCODING 92
SWIDTH 863 0
DWIDTH 10 0
BBX 8 6 1 0
BITMAP
18
18
00
00
C3
C3
ENDCHAR
STARTCHAR bracketright
ENCODING 93
SWIDTH 333 0
DWIDTH 4 0
BBX 2 11 1 -3
BITMAP
C0
40
40
40
40
40
40
40
40
40
C0
ENDCHAR
STARTCHAR asciicircum
ENCODING 94
SWIDTH 658 0
DWIDTH 8 0
BBX 7 9 0 0
BITMAP
10
10
10
10
10
10
10
10
FE
ENDCHAR
STARTCHAR underscore
ENCODING 95
SWIDTH 500 0
DWIDTH 6 0
BBX 6 1 0 -3
BITMAP
FC
ENDCHAR
STARTCHAR grave
ENCODING 96
SWIDTH 500 0
DWIDTH 5 0
BBX 5 1 0 9
BITMAP
F8
ENDCHAR
STARTCHAR a
ENCODING 97
SWIDTH 631 0
DWIDTH 8 0
BBX 8 6 0 0
BITMAP
64
94
88
88
95
62
ENDCHAR
STARTCHAR b
ENCODING 98
SWIDTH 549 0
DWIDTH 7 0
BBX 5 12 1 -3
BITMAP
70
88
88
B0
88
88
88
88
B0
80
80
80
ENDCHAR
STARTCHAR c
ENCODING 99
SWIDTH 549 0
DWIDTH 7 0
BBX 7 9 0 -3
BITMAP
44
A8
28
10
10
28
28
4A
44
ENDCHAR
STARTCHAR d
ENCODING 100
SWIDTH 494 0
DWIDTH 6 0
BBX 5 9 0 0
BITMAP
30
48
40
20
50
88
88
88
70
ENDCHAR
STARTCHAR e
ENCODING 101
SWIDTH 439 0
DWIDTH 5 0
BBX 4 6 0 0
BITMAP
60
90
40
80
90
60
ENDCHAR
STARTCHAR f
ENCODING 102
SWIDTH 521 0
DWIDTH 6 0
BBX 5 10 0 -2
BITMAP
20
20
70
A8
A8
A8
A8
70
20
20
ENDCHAR
STARTCHAR g
ENCODING 103
SWIDTH 411 0
DWIDTH 5 0
BBX 5 9 0 -3
BITMAP
80
88
50
50
20
20
60
60
20
ENDCHAR
STARTCHAR h
ENCODING 104
SWIDTH 603 0
DWIDTH 7 0
BBX 6 9 0 -3
BITMAP
B8
44
44
44
44
44
04
04
04
ENDCHAR
STARTCHAR i
ENCODING 105
SWIDTH 329 0
DWIDTH 4 0
BBX 3 6 0 0
BITMAP
80
40
40
40
40
20
ENDCHAR
STARTCHAR j
ENCODING 106
SWIDTH 603 0
DWIDTH 7 0
BBX 5 9 1 -3
BITMAP
30
A8
A8
A8
A8
70
20
20
20
ENDCHAR
STARTCHAR k
ENCODING 107
SWIDTH 549 0
DWIDTH 7 0
BBX 6 6 0 0
BITMAP
CC
50
60
50
48
44
ENDCHAR
STARTCHAR l
ENCODING 108
SWIDTH 549 0
DWIDTH 7 0
BBX 6 9 0 0
BITMAP
60
10
10
10
30
30
48
48
84
ENDCHAR
STARTCHAR m
ENCODING 109
SWIDTH 576 0
DWIDTH 7 0
BBX 6 9 0 -3
BITMAP
48
48
48
48
48
74
40
40
80
ENDCHAR
STARTCHAR n
ENCODING 110
SWIDTH 521 0
DWIDTH 6 0
BBX 6 6 0 0
BITMAP
CC
4C
28
28
10
10
ENDCHAR
STARTCHAR o
ENCODING 111
SWIDTH 549 0
DWIDTH 7 0
BBX 5 6 1 0
BITMAP
70
88
88
88
88
70
ENDCHAR
STARTCHAR p
ENCODING 112
SWIDTH 549 0
DWIDTH 7 0
BBX 7 6 0 0
BITMAP
7C
C8
48
48
4A
4C
ENDCHAR
STARTCHAR q
ENCODING 113
SWIDTH 521 0
DWIDTH 7 0
BBX 5 9 1 0
BITMAP
70
88
88
88
F8
88
88
88
70
ENDCHAR
STARTCHAR r
ENCODING 114
SWIDTH 549 0
DWIDTH 7 0
BBX 5 9 1 -3
BITMAP
70
88
88
88
88
F0
80
80
80
ENDCHAR
STARTCHAR s
ENCODING 115
SWIDTH 603 0
DWIDTH 7 0
BBX 6 6 0 0
BITMAP
7C
90
88
88
88
70
ENDCHAR
STARTCHAR t
ENCODING 116
SWIDTH 439 0
DWIDTH 5 0
BBX 5 6 0 0
BITMAP
78
A0
20
20
20
10
ENDCHAR
STARTCHAR u
ENCODING 117
SWIDTH 576 0
DWIDTH 7 0
BBX 6 6 0 0
BITMAP
68
A4
24
24
24
18
ENDCHAR
STARTCHAR v
ENCODING 118
SWIDTH 713 0
DWIDTH 9 0
BBX 7 7 1 0
BITMAP
FE
44
92
92
92
92
6C
ENDCHAR
STARTCHAR w
ENCODING 119
SWIDTH 686 0
DWIDTH 8 0
BBX 7 6 0 0
BITMAP
44
92
92
92
92
6C
ENDCHAR
STARTCHAR x
ENCODING 120
SWIDTH 493 0
DWIDTH 6 0
BBX 5 13 0 -3
BITMAP
40
40
30
40
70
80
80
80
80
70
08
08
10
ENDCHAR
STARTCHAR y
ENCODING 121
SWIDTH 686 0
DWIDTH 8 0
BBX 7 9 0 -3
BITMAP
92
54
54
54
54
38
10
10
10
ENDCHAR
STARTCHAR z
ENCODING 122
SWIDTH 494 0
DWIDTH 6 0
BBX 5 12 0 -3
BITMAP
40
58
30
40
80
80
80
80
70
08
08
30
ENDCHAR
STARTCHAR braceleft
ENCODING 123
SWIDTH 480 0
DWIDTH 6 0
BBX 4 11 1 -3
BITMAP
30
40
40
40
40
80
40
40
40
40
30
ENDCHAR
STARTCHAR bar
ENCODING 124
SWIDTH 200 0
DWIDTH 2 0
BBX 1 11 0 -3
BITMAP
80
80
80
80
80
80
80
80
80
80
80
ENDCHAR
STARTCHAR braceright
ENCODING 125
SWIDTH 480 0
DWIDTH 6 0
BBX 4 11 1 -3
BITMAP
C0
20
20
20
20
10
20
20
20
20
C0
ENDCHAR
STARTCHAR asciitilde
ENCODING 126
SWIDTH 549 0
DWIDTH 7 0
BBX 6 1 0 4
BITMAP
FC
ENDCHAR
STARTCHAR uni007F
ENCODING 127
SWIDTH 250 0
DWIDTH 255 0
BBX 1 1 253 -4
BITMAP
00
ENDCHAR
STARTCHAR degree
ENCODING 161
SWIDTH 620 0
DWIDTH 7 0
BBX 6 8 0 0
BITMAP
D8
24
20
20
20
20
20
70
ENDCHAR
STARTCHAR cent
ENCODING 162
SWIDTH 247 0
DWIDTH 3 0
BBX 3 3 0 6
BITMAP
20
40
80
ENDCHAR
STARTCHAR sterling
ENCODING 163
SWIDTH 549 0
DWIDTH 7 0
BBX 6 7 0 0
BITMAP
0C
30
C0
30
0C
00
FC
ENDCHAR
STARTCHAR section
ENCODING 164
SWIDTH 167 0
DWIDTH 2 0
BBX 2 8 0 0
BITMAP
40
40
40
40
80
80
80
80
ENDCHAR
STARTCHAR bullet
ENCODING 165
SWIDTH 713 0
DWIDTH 9 0
BBX 7 3 1 3
BITMAP
6C
92
6C
ENDCHAR
STARTCHAR paragraph
ENCODING 166
SWIDTH 500 0
DWIDTH 6 0
BBX 3 11 1 -3
BITMAP
20
40
40
E0
40
40
40
40
40
40
80
ENDCHAR
STARTCHAR germandbls
ENCODING 167
SWIDTH 753 0
DWIDTH 9 0
BBX 7 7 1 0
BITMAP
38
38
38
FE
FE
FE
10
ENDCHAR
STARTCHAR registered
ENCODING 168
SWIDTH 753 0
DWIDTH 9 0
BBX 7 7 1 0
BITMAP
10
38
7C
FE
7C
38
10
ENDCHAR
STARTCHAR copyright
ENCODING 169
SWIDTH 753 0
DWIDTH 9 0
BBX 7 7 1 0
BITMAP
6C
EE
FE
FE
7C
38
10
ENDCHAR
STARTCHAR trademark
ENCODING 170
SWIDTH 753 0
DWIDTH 9 0
BBX 7 7 1 0
BITMAP
10
38
7C
FE
FE
D6
10
ENDCHAR
STARTCHAR acute
ENCODING 171
SWIDTH 1042 0
DWIDTH 13 0
BBX 12 7 0 1
BITMAP
1080
2040
4020
FFF0
4020
2040
1080
ENDCHAR
STARTCHAR dieresis
ENCODING 172
SWIDTH 987 0
DWIDTH 12 0
BBX 11 7 0 1
BITMAP
1000
2000
4000
FFE0
4000
2000
1000
ENDCHAR
STARTCHAR notequal
ENCODING 173
SWIDTH 603 0
DWIDTH 7 0
BBX 7 11 0 0
BITMAP
10
38
54
92
10
10
10
10
10
10
10
ENDCHAR
STARTCHAR AE
ENCODING 174
SWIDTH 987 0
DWIDTH 12 0
BBX 10 7 1 1
BITMAP
0200
0100
0080
FFC0
0080
0100
0200
ENDCHAR
STARTCHAR Oslash
ENCODING 175
SWIDTH 603 0
DWIDTH 7 0
BBX 7 11 0 0
BITMAP
10
10
10
10
10
10
10
92
54
38
10
ENDCHAR
STARTCHAR infinity
ENCODING 176
SWIDTH 400 0
DWIDTH 5 0
BBX 4 4 0 6
BITMAP
60
90
90
60
ENDCHAR
STARTCHAR plusminus
ENCODING 177
SWIDTH 549 0
DWIDTH 7 0
BBX 7 8 0 0
BITMAP
10
10
10
FE
10
10
10
FE
ENDCHAR
STARTCHAR lessequal
ENCODING 178
SWIDTH 411 0
DWIDTH 5 0
BBX 5 3 0 6
BITMAP
28
50
A0
ENDCHAR
STARTCHAR greaterequal
ENCODING 179
SWIDTH 549 0
DWIDTH 7 0
BBX 6 7 0 0
BITMAP
C0
30
0C
30
C0
00
FC
ENDCHAR
STARTCHAR yen
ENCODING 180
SWIDTH 549 0
DWIDTH 7 0
BBX 7 7 0 0
BITMAP
82
44
28
10
28
44
82
ENDCHAR
STARTCHAR mu
ENCODING 181
SWIDTH 713 0
DWIDTH 9 0
BBX 8 5 0 2
BITMAP
71
8A
84
8A
71
ENDCHAR
STARTCHAR partialdiff
ENCODING 182
SWIDTH 494 0
DWIDTH 6 0
BBX 4 8 1 0
BITMAP
60
10
10
70
90
90
90
60
ENDCHAR
STARTCHAR summation
ENCODING 183
SWIDTH 460 0
DWIDTH 6 0
BBX 4 4 1 2
BITMAP
60
F0
F0
60
ENDCHAR
STARTCHAR product
ENCODING 184
SWIDTH 549 0
DWIDTH 7 0
BBX 5 5 1 2
BITMAP
20
00
F8
00
20
ENDCHAR
STARTCHAR pi
ENCODING 185
SWIDTH 549 0
DWIDTH 7 0
BBX 6 6 0 1
BITMAP
08
FC
10
20
FC
40
ENDCHAR
STARTCHAR integral
ENCODING 186
SWIDTH 549 0
DWIDTH 7 0
BBX 6 5 0 2
BITMAP
FC
00
FC
00
FC
ENDCHAR
STARTCHAR ordfeminine
ENCODING 187
SWIDTH 549 0
DWIDTH 7 0
BBX 6 5 0 2
BITMAP
64
98
00
64
98
ENDCHAR
STARTCHAR ordmasculine
ENCODING 188
SWIDTH 1000 0
DWIDTH 12 0
BBX 9 1 1 0
BITMAP
8880
ENDCHAR
STARTCHAR Omega
ENCODING 189
SWIDTH 603 0
DWIDTH 7 0
BBX 1 15 3 -3
BITMAP
80
80
80
80
80
80
80
80
80
80
80
80
80
80
80
ENDCHAR
STARTCHAR ae
ENCODING 190
SWIDTH 1000 0
DWIDTH 12 0
BBX 11 1 0 4
BITMAP
FFE0
ENDCHAR
STARTCHAR oslash
ENCODING 191
SWIDTH 658 0
DWIDTH 8 0
BBX 7 8 0 0
BITMAP
02
02
02
02
02
42
FE
40
ENDCHAR
STARTCHAR questiondown
ENCODING 192
SWIDTH 823 0
DWIDTH 10 0
BBX 7 8 1 0
BITMAP
CE
C6
64
38
58
4C
66
E6
ENDCHAR
STARTCHAR exclamdown
ENCODING 193
SWIDTH 686 0
DWIDTH 8 0
BBX 7 9 0 0
BITMAP
7E
C6
8C
4C
0E
06
06
F6
3C
ENDCHAR
STARTCHAR logicalnot
ENCODING 194
SWIDTH 795 0
DWIDTH 10 0
BBX 10 9 0 0
BITMAP
7F00
DB80
9980
5900
1E00
1B00
1B00
19C0
7180
ENDCHAR
STARTCHAR radical
ENCODING 195
SWIDTH 987 0
DWIDTH 12 0
BBX 9 9 2 -2
BITMAP
4000
8E00
9100
A080
4C80
4900
A600
9000
6000
ENDCHAR
STARTCHAR florin
ENCODING 196
SWIDTH 768 0
DWIDTH 10 0
BBX 9 9 0 0
BITMAP
3E00
4100
A280
9480
8880
9480
A280
4100
3E00
ENDCHAR
STARTCHAR approxequal
ENCODING 197
SWIDTH 768 0
DWIDTH 10 0
BBX 9 9 0 0
BITMAP
3E00
4100
8880
8880
BE80
8880
8880
4100
3E00
ENDCHAR
STARTCHAR Delta
ENCODING 198
SWIDTH 823 0
DWIDTH 10 0
BBX 9 9 0 0
BITMAP
3E80
4100
8280
8480
8880
9080
A080
4100
BE00
ENDCHAR
STARTCHAR guillemotleft
ENCODING 199
SWIDTH 768 0
DWIDTH 9 0
BBX 8 6 0 0
BITMAP
3C
42
81
81
81
81
ENDCHAR
STARTCHAR guillemotright
ENCODING 200
SWIDTH 768 0
DWIDTH 9 0
BBX 8 6 0 0
BITMAP
81
81
81
81
42
3C
ENDCHAR
STARTCHAR ellipsis
ENCODING 201
SWIDTH 713 0
DWIDTH 9 0
BBX 8 6 0 0
BITMAP
FC
02
01
01
02
FC
ENDCHAR
STARTCHAR uni00A0
ENCODING 202
SWIDTH 713 0
DWIDTH 9 0
BBX 8 8 0 -2
BITMAP
FC
02
01
01
02
FC
00
FF
ENDCHAR
STARTCHAR Agrave
ENCODING 203
SWIDTH 713 0
DWIDTH 9 0
BBX 8 8 0 -1
BITMAP
02
3F
44
84
88
48
3F
10
ENDCHAR
STARTCHAR Atilde
ENCODING 204
SWIDTH 713 0
DWIDTH 9 0
BBX 8 6 0 0
BITMAP
3F
40
80
80
40
3F
ENDCHAR
STARTCHAR Otilde
ENCODING 205
SWIDTH 713 0
DWIDTH 9 0
BBX 8 8 0 -2
BITMAP
3F
40
80
80
40
3F
00
FF
ENDCHAR
STARTCHAR OE
ENCODING 206
SWIDTH 713 0
DWIDTH 9 0
BBX 6 5 1 1
BITMAP
7C
80
FC
80
7C
ENDCHAR
STARTCHAR oe
ENCODING 207
SWIDTH 713 0
DWIDTH 9 0
BBX 6 7 1 0
BITMAP
08
7C
90
FC
A0
7C
40
ENDCHAR
STARTCHAR endash
ENCODING 208
SWIDTH 768 0
DWIDTH 9 0
BBX 8 8 0 0
BITMAP
01
02
04
08
10
20
40
FF
ENDCHAR
STARTCHAR emdash
ENCODING 209
SWIDTH 713 0
DWIDTH 9 0
BBX 7 8 1 0
BITMAP
FE
82
44
44
28
28
10
10
ENDCHAR
STARTCHAR quotedblleft
ENCODING 210
SWIDTH 790 0
DWIDTH 9 0
BBX 8 8 0 0
BITMAP
3C
42
B9
A5
B9
A5
42
3C
ENDCHAR
STARTCHAR quotedblright
ENCODING 211
SWIDTH 790 0
DWIDTH 9 0
BBX 8 8 0 0
BITMAP
3C
42
99
A1
A1
99
42
3C
ENDCHAR
STARTCHAR quoteleft
ENCODING 212
SWIDTH 890 0
DWIDTH 11 0
BBX 10 5 0 3
BITMAP
F8C0
AD80
2A80
2880
7DC0
ENDCHAR
STARTCHAR quoteright
ENCODING 213
SWIDTH 823 0
DWIDTH 10 0
BBX 8 10 1 -1
BITMAP
FF
42
42
42
42
42
42
42
42
E7
ENDCHAR
STARTCHAR divide
ENCODING 214
SWIDTH 549 0
DWIDTH 7 0
BBX 7 10 0 0
BITMAP
02
02
04
04
08
C8
50
50
20
20
ENDCHAR
STARTCHAR lozenge
ENCODING 215
SWIDTH 250 0
DWIDTH 7 0
BBX 1 1 3 4
BITMAP
80
ENDCHAR
STARTCHAR ydieresis
ENCODING 216
SWIDTH 713 0
DWIDTH 9 0
BBX 7 4 1 1
BITMAP
FE
02
02
02
ENDCHAR
STARTCHAR Ydieresis
ENCODING 217
SWIDTH 603 0
DWIDTH 7 0
BBX 5 6 1 0
BITMAP
20
20
50
50
88
88
ENDCHAR
STARTCHAR fraction
ENCODING 218
SWIDTH 603 0
DWIDTH 7 0
BBX 5 6 1 0
BITMAP
88
88
50
50
20
20
ENDCHAR
STARTCHAR currency
ENCODING 219
SWIDTH 1042 0
DWIDTH 13 0
BBX 12 6 0 0
BITMAP
2040
7FE0
8010
8010
7FE0
2040
ENDCHAR
STARTCHAR guilsinglleft
ENCODING 220
SWIDTH 987 0
DWIDTH 12 0
BBX 11 6 0 0
BITMAP
2000
7FE0
8000
8000
7FE0
2000
ENDCHAR
STARTCHAR guilsinglright
ENCODING 221
SWIDTH 603 0
DWIDTH 7 0
BBX 6 11 0 0
BITMAP
30
48
CC
48
48
48
48
48
48
48
48
ENDCHAR
STARTCHAR uniFB01
ENCODING 222
SWIDTH 987 0
DWIDTH 12 0
BBX 11 6 0 0
BITMAP
0080
FFC0
0020
0020
FFC0
0080
ENDCHAR
STARTCHAR uniFB02
ENCODING 223
SWIDTH 603 0
DWIDTH 7 0
BBX 6 11 0 0
BITMAP
48
48
48
48
48
48
48
48
CC
48
30
ENDCHAR
STARTCHAR daggerdbl
ENCODING 224
SWIDTH 494 0
DWIDTH 6 0
BBX 5 9 0 0
BITMAP
20
20
50
50
88
50
50
20
20
ENDCHAR
STARTCHAR periodcentered
ENCODING 225
SWIDTH 329 0
DWIDTH 4 0
BBX 3 11 0 -2
BITMAP
20
20
40
40
80
80
80
40
40
20
20
ENDCHAR
STARTCHAR quotesinglbase
ENCODING 226
SWIDTH 790 0
DWIDTH 9 0
BBX 8 8 0 0
BITMAP
3C
42
B9
A5
B9
A5
42
3C
ENDCHAR
STARTCHAR quotedblbase
ENCODING 227
SWIDTH 790 0
DWIDTH 9 0
BBX 8 8 0 0
BITMAP
3C
42
99
A1
A1
99
42
3C
ENDCHAR
STARTCHAR perthousand
ENCODING 228
SWIDTH 786 0
DWIDTH 9 0
BBX 8 4 0 4
BITMAP
F1
5B
55
51
ENDCHAR
STARTCHAR Acircumflex
ENCODING 229
SWIDTH 713 0
DWIDTH 9 0
BBX 7 9 1 -1
BITMAP
FE
42
20
10
08
10
20
42
FE
ENDCHAR
STARTCHAR Ecircumflex
ENCODING 230
SWIDTH 384 0
DWIDTH 5 0
BBX 4 14 0 -4
BITMAP
10
20
40
40
80
80
80
80
80
80
80
80
80
80
ENDCHAR
STARTCHAR Aacute
ENCODING 231
SWIDTH 384 0
DWIDTH 5 0
BBX 1 17 0 -4
BITMAP
80
80
80
80
80
80
80
80
80
80
80
80
80
80
80
80
80
ENDCHAR
STARTCHAR Edieresis
ENCODING 232
SWIDTH 384 0
DWIDTH 5 0
BBX 4 17 0 -4
BITMAP
80
80
80
80
80
80
80
80
80
80
80
80
80
40
40
20
10
ENDCHAR
STARTCHAR Egrave
ENCODING 233
SWIDTH 384 0
DWIDTH 5 0
BBX 4 15 0 -4
BITMAP
F0
80
80
80
80
80
80
80
80
80
80
80
80
80
80
ENDCHAR
STARTCHAR Iacute
ENCODING 234
SWIDTH 384 0
DWIDTH 5 0
BBX 1 17 0 -4
BITMAP
80
80
80
80
80
80
80
80
80
80
80
80
80
80
80
80
80
ENDCHAR
STARTCHAR Icircumflex
ENCODING 235
SWIDTH 384 0
DWIDTH 5 0
BBX 4 15 0 -2
BITMAP
80
80
80
80
80
80
80
80
80
80
80
80
80
80
F0
ENDCHAR
STARTCHAR Idieresis
ENCODING 236
SWIDTH 494 0
DWIDTH 6 0
BBX 3 15 2 -4
BITMAP
60
80
80
80
80
80
80
80
80
80
80
80
80
80
80
ENDCHAR
STARTCHAR Igrave
ENCODING 237
SWIDTH 494 0
DWIDTH 6 0
BBX 3 17 0 -4
BITMAP
20
20
20
20
20
20
20
20
C0
20
20
20
20
20
20
20
20
ENDCHAR
STARTCHAR Oacute
ENCODING 238
SWIDTH 494 0
DWIDTH 6 0
BBX 3 15 2 -2
BITMAP
80
80
80
80
80
80
80
80
80
80
80
80
80
80
60
ENDCHAR
STARTCHAR Ocircumflex
ENCODING 239
SWIDTH 494 0
DWIDTH 6 0
BBX 1 17 2 -4
BITMAP
80
80
80
80
80
80
80
80
80
80
80
80
80
80
80
80
80
ENDCHAR
STARTCHAR Ograve
ENCODING 241
SWIDTH 329 0
DWIDTH 4 0
BBX 3 11 0 -2
BITMAP
80
80
40
40
20
20
20
40
40
80
80
ENDCHAR
STARTCHAR Uacute
ENCODING 242
SWIDTH 274 0
DWIDTH 4 0
BBX 3 14 0 -2
BITMAP
20
40
40
40
40
40
40
40
40
40
40
40
40
80
ENDCHAR
STARTCHAR Ucircumflex
ENCODING 243
SWIDTH 686 0
DWIDTH 8 0
BBX 4 15 4 -4
BITMAP
30
40
80
80
80
80
80
80
80
80
80
80
80
80
80
ENDCHAR
STARTCHAR Ugrave
ENCODING 244
SWIDTH 686 0
DWIDTH 8 0
BBX 1 17 4 -4
BITMAP
80
80
80
80
80
80
80
80
80
80
80
80
80
80
80
80
80
ENDCHAR
STARTCHAR dotlessi
ENCODING 245
SWIDTH 686 0
DWIDTH 8 0
BBX 4 15 1 -2
BITMAP
10
10
10
10
10
10
10
10
10
10
10
10
10
20
C0
ENDCHAR
STARTCHAR circumflex
ENCODING 246
SWIDTH 384 0
DWIDTH 5 0
BBX 4 16 0 -4
BITMAP
80
40
20
20
10
10
10
10
10
10
10
10
10
10
10
10
ENDCHAR
STARTCHAR tilde
ENCODING 247
SWIDTH 384 0
DWIDTH 5 0
BBX 1 17 3 -4
BITMAP
80
80
80
80
80
80
80
80
80
80
80
80
80
80
80
80
80
ENDCHAR
STARTCHAR macron
ENCODING 248
SWIDTH 384 0
DWIDTH 5 0
BBX 4 17 0 -4
BITMAP
10
10
10
10
10
10
10
10
10
10
10
10
10
20
20
40
80
ENDCHAR
STARTCHAR breve
ENCODING 249
SWIDTH 384 0
DWIDTH 5 0
BBX 4 15 0 -4
BITMAP
F0
10
10
10
10
10
10
10
10
10
10
10
10
10
10
ENDCHAR
STARTCHAR dotaccent
ENCODING 250
SWIDTH 384 0
DWIDTH 5 0
BBX 1 17 3 -4
BITMAP
80
80
80
80
80
80
80
80
80
80
80
80
80
80
80
80
80
ENDCHAR
STARTCHAR ring
ENCODING 251
SWIDTH 384 0
DWIDTH 5 0
BBX 4 15 0 -2
BITMAP
10
10
10
10
10
10
10
10
10
10
10
10
10
10
F0
ENDCHAR
STARTCHAR cedilla
ENCODING 252
SWIDTH 494 0
DWIDTH 6 0
BBX 3 15 0 -4
BITMAP
C0
20
20
20
20
20
20
20
20
20
20
20
20
20
20
ENDCHAR
STARTCHAR hungarumlaut
ENCODING 253
SWIDTH 494 0
DWIDTH 6 0
BBX 3 17 2 -4
BITMAP
80
80
80
80
80
80
80
80
60
80
80
80
80
80
80
80
80
ENDCHAR
STARTCHAR ogonek
ENCODING 254
SWIDTH 494 0
DWIDTH 6 0
BBX 3 15 0 -2
BITMAP
20
20
20
20
20
20
20
20
20
20
20
20
20
20
C0
ENDCHAR
STARTCHAR caron
ENCODING 255
SWIDTH 250 0
DWIDTH 10 0
BBX 9 10 0 0
BITMAP
0600
0C00
0800
7700
FF80
FE00
FE00
FF80
7F00
3600
ENDCHAR
ENDFONT
